Coordinates
version=1
nRows=10
nColumns=63
inDegrees=yes

Units are S.I. units (second, meters, Newtons, ...)
If the header above contains a line with 'inDegrees', this indicates whether rotational values are in degrees (yes) or radians (no).

endheader
time	pelvis_tilt	pelvis_list	pelvis_rotation	pelvis_tx	pelvis_ty	pelvis_tz	hip_flexion_r	hip_adduction_r	hip_rotation_r	knee_angle_r	knee_angle_r_beta	ankle_angle_r	subtalar_angle_r	mtp_angle_r	hip_flexion_l	hip_adduction_l	hip_rotation_l	knee_angle_l	knee_angle_l_beta	ankle_angle_l	subtalar_angle_l	mtp_angle_l	L5_S1_Flex_Ext	L5_S1_Lat_Bending	L5_S1_axial_rotation	L4_L5_Flex_Ext	L4_L5_Lat_Bending	L4_L5_axial_rotation	L3_L4_Flex_Ext	L3_L4_Lat_Bending	L3_L4_axial_rotation	L2_L3_Flex_Ext	L2_L3_Lat_Bending	L2_L3_axial_rotation	L1_L2_Flex_Ext	L1_L2_Lat_Bending	L1_L2_axial_rotation	L1_T12_Flex_Ext	L1_T12_Lat_Bending	L1_T12_axial_rotation	Abs_r3	Abs_r2	Abs_r1	Abs_t1	Abs_t2	neck_flexion	neck_bending	neck_rotation	arm_flex_r	arm_add_r	arm_rot_r	elbow_flex_r	pro_sup_r	wrist_flex_r	wrist_dev_r	arm_flex_l	arm_add_l	arm_rot_l	elbow_flex_l	pro_sup_l	wrist_flex_l	wrist_dev_l
4.423729	4.752943	1.600286	99.313327	0.157091	0.961445	0.369414	-8.086137	4.546085	-14.899161	3.414732	0.059598	22.996131	4.682958	0.000000	-7.240317	-6.913066	4.928684	0.963034	0.016808	21.473156	3.112863	0.000000	0.042305	0.341453	-0.312565	0.078565	0.454132	-0.332101	0.069503	0.830209	-0.332101	0.048350	0.830209	-0.273495	0.039284	0.696291	-0.253959	0.024173	0.528911	-0.234424	0.302181	3.862584	-1.738394	0.000000	0.000000	7.747547	6.555409	-3.005237	45.168048	5.293968	83.332343	102.150452	51.938317	2.022936	17.069069	36.377662	12.014028	73.831676	112.017876	36.404341	22.217542	27.683803
4.440678	4.818046	1.613807	99.395023	0.157748	0.961384	0.369520	-8.191052	4.708122	-14.347216	3.176950	0.055448	22.775336	4.044343	0.000000	-7.200478	-7.048175	4.901414	0.978581	0.017079	21.543444	3.241696	0.000000	0.038002	0.335173	-0.344670	0.070573	0.445781	-0.366212	0.062433	0.814940	-0.366212	0.043432	0.814940	-0.301586	0.035288	0.683485	-0.280045	0.021714	0.519183	-0.258503	0.271443	3.791547	-1.916952	0.000000	0.000000	7.955319	6.827597	-2.861475	45.063387	5.119137	82.289654	101.588413	51.079971	6.440262	16.412286	36.013372	11.870335	73.922734	111.607106	39.714571	22.302597	27.056476
4.457627	4.854910	1.618465	99.463058	0.158489	0.961175	0.369562	-8.302551	4.836316	-13.783264	2.935766	0.051239	22.634085	3.496532	0.000000	-7.164551	-7.153641	4.868253	0.991705	0.017309	21.640710	3.363441	0.000000	0.033560	0.325708	-0.402108	0.062324	0.433191	-0.427240	0.055136	0.791925	-0.427240	0.038356	0.791925	-0.351845	0.031164	0.664183	-0.326713	0.019176	0.504521	-0.301581	0.239716	3.684469	-2.236407	0.000000	0.000000	8.342408	7.128614	-2.788196	45.136993	4.872999	81.518394	100.981865	52.085811	9.942371	16.413178	35.727973	11.520917	73.721889	111.127690	43.127114	22.497625	26.405409
4.474576	4.862414	1.596031	99.498512	0.159344	0.960804	0.369490	-8.406918	4.927731	-13.157852	2.679695	0.046770	22.574564	3.005366	0.000000	-7.120603	-7.223735	4.806543	1.001810	0.017485	21.761689	3.489538	0.000000	0.032456	0.311759	-0.486007	0.060273	0.414640	-0.516383	0.053321	0.758012	-0.516383	0.037094	0.758012	-0.425256	0.030138	0.635740	-0.394881	0.018545	0.482915	-0.364505	0.231828	3.526686	-2.703026	0.000000	0.000000	8.860281	7.457659	-2.783593	45.403346	4.599284	81.160596	100.293903	53.663948	12.464618	16.326893	35.511051	10.967121	73.077726	110.556633	47.305249	23.068124	25.431459
4.491525	4.842173	1.545482	99.555504	0.160243	0.960276	0.369333	-8.497938	4.986709	-12.546835	2.416387	0.042174	22.597442	2.580387	0.000000	-7.056563	-7.266778	4.787698	1.009526	0.017620	21.891329	3.606932	0.000000	0.034208	0.294532	-0.605405	0.063527	0.391727	-0.643243	0.056200	0.716124	-0.643243	0.039096	0.716124	-0.529730	0.031765	0.600609	-0.491892	0.019546	0.456230	-0.454054	0.244341	3.331801	-3.367084	0.000000	0.000000	9.512081	7.793636	-2.724989	45.769948	4.363360	81.136492	99.448662	56.177611	13.835414	16.321330	35.425387	10.188265	72.060764	109.945514	52.137599	23.728560	24.207467
4.508475	4.784860	1.463530	99.605787	0.161246	0.959608	0.369083	-8.566300	5.001486	-11.951836	2.157345	0.037653	22.707757	2.234712	0.000000	-6.976161	-7.270203	4.806544	1.013100	0.017682	22.016608	3.672009	0.000000	0.039959	0.270592	-0.742765	0.074208	0.359888	-0.789188	0.065648	0.657918	-0.789188	0.045669	0.657918	-0.649920	0.037106	0.551792	-0.603497	0.022832	0.419147	-0.557074	0.285422	3.060994	-4.131037	0.000000	0.000000	10.274832	8.170414	-2.721827	46.142059	4.156966	81.241291	98.373211	59.491539	14.246680	16.187129	35.491209	9.223980	70.847017	109.294986	57.352090	24.337036	22.796196
4.525424	4.690105	1.356843	99.654830	0.162351	0.958833	0.368764	-8.615327	4.973764	-11.382192	1.905542	0.033258	22.894078	1.950331	0.000000	-6.883266	-7.235785	4.890639	1.013039	0.017681	22.121052	3.641689	0.000000	0.048944	0.238773	-0.887658	0.090894	0.317569	-0.943136	0.080410	0.580554	-0.943136	0.055938	0.580554	-0.776701	0.045449	0.486907	-0.721222	0.027966	0.369860	-0.665743	0.349601	2.701053	-4.936886	0.000000	0.000000	11.146237	8.608874	-2.846746	46.411699	3.956426	81.245670	97.006650	63.409818	13.936261	15.648876	35.694417	8.100909	69.622285	108.653486	62.390990	24.629817	21.301551
4.542373	4.541589	1.235403	99.706269	0.163554	0.957994	0.368393	-8.653664	4.888538	-10.891841	1.669458	0.029138	23.154940	1.767447	0.000000	-6.788469	-7.149025	5.040869	1.009178	0.017613	22.203482	3.525337	0.000000	0.058731	0.195564	-1.022026	0.109069	0.260100	-1.085903	0.096489	0.475493	-1.085903	0.067123	0.475493	-0.894273	0.054537	0.398793	-0.830396	0.033559	0.302928	-0.766519	0.419508	2.212254	-5.684202	0.000000	0.000000	12.166292	9.116318	-3.263553	46.407079	3.720292	80.833036	95.348618	67.746023	13.314410	14.752271	36.000080	6.852141	68.532856	108.046850	66.664651	24.417265	19.801310
4.559322	4.367340	1.113650	99.754749	0.164818	0.957134	0.367989	-8.689150	4.775015	-10.437668	1.451303	0.025330	23.432682	1.605856	0.000000	-6.703690	-7.039353	5.249556	1.000530	0.017463	22.281862	3.331496	0.000000	0.068708	0.145602	-1.138956	0.127598	0.193651	-1.210141	0.112881	0.354017	-1.210141	0.078527	0.354017	-0.996587	0.063802	0.296912	-0.925402	0.039260	0.225538	-0.854217	0.490776	1.647079	-6.334532	0.000000	0.000000	13.314577	9.671553	-3.945691	46.046747	3.395531	79.953614	93.460889	71.855779	12.424730	13.613655	36.307334	5.485224	67.557857	107.480084	69.874917	23.604596	18.300707
4.576271	4.163223	1.006978	99.797777	0.166137	0.956298	0.367585	-8.736619	4.633279	-10.048497	1.249866	0.021814	23.715762	1.482317	0.000000	-6.643798	-6.903709	5.502056	0.987967	0.017243	22.353074	3.067818	0.000000	0.077258	0.087942	-1.229662	0.143477	0.116963	-1.306516	0.126928	0.213822	-1.306516	0.088299	0.213822	-1.075955	0.071742	0.179331	-0.999101	0.044145	0.136222	-0.922247	0.551849	0.994816	-6.839013	0.000000	0.000000	14.573720	10.264782	-4.954232	45.235741	2.944928	78.450601	91.400563	75.372996	11.641114	12.425065	36.586789	4.017521	66.687583	106.863314	71.935250	22.224392	16.849458
